<svg id="Layer_1" data-name="Layer 1" xmlns="http://www.w3.org/2000/svg" viewBox="0 0 294.27333 302.81323"><defs><style>.cls-1{fill:#766d2c;}.cls-2{fill:#fff;}.cls-3{fill:#c62026;}.cls-4{fill:#3d76bb;}.cls-5{fill:#606161;}</style></defs><title>logo_name</title><path class="cls-1" d="M238.34789,170.73374c12.17794-.73855,24.57153,6.39875,30.50121,15.80872,6.51182,10.33378,1.1627,16.95664,8.24988,24.19614,8.28835,8.46651,21.99527,5.93659,23.31575,12.40362a22.99939,22.99939,0,0,1-1.32322,11.25224c-.03808.10025-.09289.24189-.15551.39759-.83267,2.06971-3.6395,7.53952-17.54756,12.02667a56.86912,56.86912,0,0,1-10.38351,2.39192c-10.16987,1.29783-15.65484,1.19017-19.64233,1.617-6.34133.67892-15.11625,4.41789-25.18237,18.41884a52.51669,52.51669,0,0,1-16.41656-12.76248,54.20024,54.20024,0,0,1-9.22081-15.51046c-.76524-2.02428-10.44749-28.97,6.36588-49.87862.28686-.35672.49132-.6055.70151-.85748C212.25825,184.66621,223.11088,171.65787,238.34789,170.73374Z" transform="translate(-102.76338 -99.4856)"/><path class="cls-2" d="M196.06755,236.66727a18.17738,18.17738,0,0,0,9.25987,4.92484c11.4827,2.019,21.1799-9.65753,22.65512-11.4942,2.22971-2.776,6.71192-9.26248,9.318-41.39214.74075-9.13293,1.03686-16.72406,1.16836-21.97123a55.37546,55.37546,0,0,0-35.38443,24.3074,61.86932,61.86932,0,0,0-6.46954,15.33566A63.40577,63.40577,0,0,0,196.06755,236.66727Z" transform="translate(-102.76338 -99.4856)"/><path class="cls-2" d="M292.21075,218.07059c-3.35511-.23388-5.9403,1.61321-6.266,3.66476-.35906,2.26213,2.12243,4.185,3.71625,4.92367,4.2241,1.95782,10.37654-.618,10.75369-3.5168.23551-1.81012-1.79593-3.60442-3.05542-4.34746A7.10615,7.10615,0,0,0,292.21075,218.07059Z" transform="translate(-102.76338 -99.4856)"/><circle class="cls-3" cx="146.86132" cy="120.10868" r="15.02233"/><path class="cls-4" d="M251.65757,311.52978c-58.97256,0-113.52606-31.82808-143.56486-84.234l-3.32133-5.79279,3.28592-5.81363a163.73463,163.73463,0,0,1,141.98908-83.17586h.22183a163.30438,163.30438,0,0,1,143.59194,85.65878l3.17656,5.85321-3.39736,5.72613c-4.73671,7.9841-48.77008,78.11-135.29122,81.6407C256.11413,311.484,253.88012,311.52978,251.65757,311.52978ZM131.95128,221.43006c27.46421,43.23662,74.93659,68.54286,125.44076,66.52028,63.31351-2.585,100.97292-48.342,112.396-64.59143a139.82293,139.82293,0,0,0-119.51987-67.38263h-.18955A140.21416,140.21416,0,0,0,131.95128,221.43006Z" transform="translate(-102.76338 -99.4856)"/><rect class="cls-4" x="117.9086" y="143.24913" width="23.46319" height="51.8416" transform="translate(-185.07326 47.27425) rotate(-46.50031)"/><rect class="cls-4" x="172.8762" y="111.58217" width="23.46403" height="51.84014" transform="translate(-144.98692 -1.15497) rotate(-26.88216)"/><rect class="cls-4" x="135.56826" width="23.4628" height="51.84145"/><rect class="cls-4" x="285.57769" y="124.67052" width="51.84104" height="23.4638" transform="translate(-53.31491 253.63483) rotate(-63.23932)"/><rect class="cls-4" x="343.72526" y="157.43947" width="51.84287" height="23.46301" transform="translate(-117.41224 202.25396) rotate(-43.62413)"/><path class="cls-4" d="M250.063,293.08491a71.031,71.031,0,1,1,71.032-71.02995A71.11077,71.11077,0,0,1,250.063,293.08491Zm0-122.86515a51.83416,51.83416,0,1,0,51.8352,51.8352A51.89271,51.89271,0,0,0,250.063,170.21976Z" transform="translate(-102.76338 -99.4856)"/><path class="cls-5" d="M134.75977,339.60693h2.60009v10.95069a18.67243,18.67243,0,0,1,17.56787-11.34473c10.95069,0,19.459,8.74463,19.459,19.93164a19.48909,19.48909,0,0,1-19.459,19.853,18.79253,18.79253,0,0,1-17.56787-11.34473v30.646h-2.60009Zm36.94873,19.5376c0-9.68994-7.40577-17.56836-17.17432-17.56836a17.53247,17.53247,0,1,0,17.17432,17.56836Z" transform="translate(-102.76338 -99.4856)"/><path class="cls-5" d="M141.35986,402.29883H130.75977v-66.6919h10.60009v3.80225a23.371,23.371,0,0,1,13.56787-4.19629c13.15479,0,23.459,10.51221,23.459,23.93164,0,13.37549-10.3042,23.853-23.459,23.853a23.33043,23.33043,0,0,1-13.56787-4.21582Zm13.17432-56.72266a13.53358,13.53358,0,1,0,13.17432,13.56836A13.23322,13.23322,0,0,0,154.53418,345.57617Z" transform="translate(-102.76338 -99.4856)"/><path class="cls-5" d="M188.25342,359.53857V339.60693H190.853v19.77393c0,12.68359,6.854,17.25293,13.62939,17.25293,8.74463,0,14.73194-6.06592,14.73194-17.33154V339.60693h2.5996v38.99659h-2.5996v-9.21729h-.15772c-2.44189,5.98731-7.79932,9.61133-14.81055,9.61133C195.73779,378.99756,188.25342,373.24658,188.25342,359.53857Z" transform="translate(-102.76338 -99.4856)"/><path class="cls-5" d="M204.24609,382.99756a18.97982,18.97982,0,0,1-14.11425-5.86279c-3.90039-4.189-5.87842-10.10889-5.87842-17.5962V335.60693H194.853v23.77393c0,11.53125,6.0332,13.25293,9.62939,13.25293,9.33789,0,10.73194-8.35254,10.73194-13.33154V335.60693H225.814v46.99659h-10.5996v-2.61133A20.51713,20.51713,0,0,1,204.24609,382.99756Z" transform="translate(-102.76338 -99.4856)"/><path class="cls-5" d="M238.91016,339.60693h2.60009v10.95069a18.67243,18.67243,0,0,1,17.56788-11.34473c10.95068,0,19.45947,8.74463,19.45947,19.93164a19.48949,19.48949,0,0,1-19.45947,19.853,18.79254,18.79254,0,0,1-17.56788-11.34473v30.646h-2.60009Zm36.94873,19.5376c0-9.68994-7.40576-17.56836-17.17432-17.56836a17.53247,17.53247,0,1,0,17.17432,17.56836Z" transform="translate(-102.76338 -99.4856)"/><path class="cls-5" d="M245.51025,402.29883H234.91016v-66.6919h10.60009v3.80225a23.37106,23.37106,0,0,1,13.56788-4.19629c13.15478,0,23.45947,10.51221,23.45947,23.93164,0,13.37549-10.30469,23.853-23.45947,23.853a23.33044,23.33044,0,0,1-13.56788-4.21582Zm13.17432-56.72266a13.53358,13.53358,0,1,0,13.17432,13.56836A13.23322,13.23322,0,0,0,258.68457,345.57617Z" transform="translate(-102.76338 -99.4856)"/><path class="cls-5" d="M289.96143,355.91455h28.44091v2.44238H289.96143Z" transform="translate(-102.76338 -99.4856)"/><rect class="cls-5" x="183.19804" y="252.42896" width="36.44092" height="10.44238"/><path class="cls-5" d="M331.32227,328.34131a1.93057,1.93057,0,0,1,3.86035,0,1.93057,1.93057,0,1,1-3.86035,0Zm.62988,11.26562h2.59961v38.99659h-2.59961Z" transform="translate(-102.76338 -99.4856)"/><path class="cls-5" d="M338.55176,382.60352H327.95215V335.60693h10.59961Zm-5.33887-48.293a5.93031,5.93031,0,1,1,5.96973-5.96924A5.937,5.937,0,0,1,333.21289,334.31055Z" transform="translate(-102.76338 -99.4856)"/><path class="cls-5" d="M351.332,370.0166v-50.499h2.59961v50.26269c0,4.25391,2.12695,6.53858,5.59375,6.53858a11.53778,11.53778,0,0,0,3.07227-.55127l.47265,2.36328a15.71738,15.71738,0,0,1-4.09668.63037C354.3252,378.76123,351.332,375.68848,351.332,370.0166Z" transform="translate(-102.76338 -99.4856)"/><path class="cls-5" d="M358.97363,382.76123c-7.07226,0-11.6416-5.00244-11.6416-12.74463v-54.499h10.59961v54.26269c0,2.53858.84668,2.53858,1.59375,2.53858a8.93145,8.93145,0,0,0,1.97461-.39746l4.16992-1.19043L367.73145,381.04l-3.64258.959A19.809,19.809,0,0,1,358.97363,382.76123Z" transform="translate(-102.76338 -99.4856)"/></svg>