<svg id="Layer_1" data-name="Layer 1" xmlns="http://www.w3.org/2000/svg" viewBox="0 0 294.27333 212.04418"><defs><style>.cls-1{fill:#766d2c;}.cls-2{fill:#fff;}.cls-3{fill:#c62026;}.cls-4{fill:#3d76bb;}</style></defs><title>logo</title><path class="cls-1" d="M238.34789,170.73374c12.17794-.73855,24.57153,6.39875,30.50121,15.80872,6.51182,10.33378,1.1627,16.95664,8.24988,24.19614,8.28835,8.46651,21.99527,5.93659,23.31575,12.40362a22.99939,22.99939,0,0,1-1.32322,11.25224c-.03808.10025-.09289.24189-.15551.39759-.83267,2.06971-3.6395,7.53952-17.54756,12.02667a56.86912,56.86912,0,0,1-10.38351,2.39192c-10.16987,1.29783-15.65484,1.19017-19.64233,1.617-6.34133.67892-15.11625,4.41789-25.18237,18.41884a52.51669,52.51669,0,0,1-16.41656-12.76248,54.20024,54.20024,0,0,1-9.22081-15.51046c-.76524-2.02428-10.44749-28.97,6.36588-49.87862.28686-.35672.49132-.6055.70151-.85748C212.25825,184.66621,223.11088,171.65787,238.34789,170.73374Z" transform="translate(-102.76338 -99.4856)"/><path class="cls-2" d="M196.06755,236.66727a18.17738,18.17738,0,0,0,9.25987,4.92484c11.4827,2.019,21.1799-9.65753,22.65512-11.4942,2.22971-2.776,6.71192-9.26248,9.318-41.39214.74075-9.13293,1.03686-16.72406,1.16836-21.97123a55.37546,55.37546,0,0,0-35.38443,24.3074,61.86932,61.86932,0,0,0-6.46954,15.33566A63.40577,63.40577,0,0,0,196.06755,236.66727Z" transform="translate(-102.76338 -99.4856)"/><path class="cls-2" d="M292.21075,218.07059c-3.35511-.23388-5.9403,1.61321-6.266,3.66476-.35906,2.26213,2.12243,4.185,3.71625,4.92367,4.2241,1.95782,10.37654-.618,10.75369-3.5168.23551-1.81012-1.79593-3.60442-3.05542-4.34746A7.10615,7.10615,0,0,0,292.21075,218.07059Z" transform="translate(-102.76338 -99.4856)"/><circle class="cls-3" cx="146.86132" cy="120.10868" r="15.02233"/><path class="cls-4" d="M251.65757,311.52978c-58.97256,0-113.52606-31.82808-143.56486-84.234l-3.32133-5.79279,3.28592-5.81363a163.73463,163.73463,0,0,1,141.98908-83.17586h.22183a163.30438,163.30438,0,0,1,143.59194,85.65878l3.17656,5.85321-3.39736,5.72613c-4.73671,7.9841-48.77008,78.11-135.29122,81.6407C256.11413,311.484,253.88012,311.52978,251.65757,311.52978ZM131.95128,221.43006c27.46421,43.23662,74.93659,68.54286,125.44076,66.52028,63.31351-2.585,100.97292-48.342,112.396-64.59143a139.82293,139.82293,0,0,0-119.51987-67.38263h-.18955A140.21416,140.21416,0,0,0,131.95128,221.43006Z" transform="translate(-102.76338 -99.4856)"/><rect class="cls-4" x="117.9086" y="143.24913" width="23.46319" height="51.8416" transform="translate(-185.07326 47.27425) rotate(-46.50031)"/><rect class="cls-4" x="172.8762" y="111.58217" width="23.46403" height="51.84014" transform="translate(-144.98692 -1.15497) rotate(-26.88216)"/><rect class="cls-4" x="135.56826" width="23.4628" height="51.84145"/><rect class="cls-4" x="285.57769" y="124.67052" width="51.84104" height="23.4638" transform="translate(-53.31491 253.63483) rotate(-63.23932)"/><rect class="cls-4" x="343.72526" y="157.43947" width="51.84287" height="23.46301" transform="translate(-117.41224 202.25396) rotate(-43.62413)"/><path class="cls-4" d="M250.063,293.08491a71.031,71.031,0,1,1,71.032-71.02995A71.11077,71.11077,0,0,1,250.063,293.08491Zm0-122.86515a51.83416,51.83416,0,1,0,51.8352,51.8352A51.89271,51.89271,0,0,0,250.063,170.21976Z" transform="translate(-102.76338 -99.4856)"/></svg>