<svg id="Layer_1" data-name="Layer 1" xmlns="http://www.w3.org/2000/svg" viewBox="0 0 236.97168 86.78125"><defs><style>.cls-1{fill:#606161;}</style></defs><title>name</title><path class="cls-1" d="M134.75977,339.60693h2.60009v10.95069a18.67243,18.67243,0,0,1,17.56787-11.34473c10.95069,0,19.459,8.74463,19.459,19.93164a19.48909,19.48909,0,0,1-19.459,19.853,18.79253,18.79253,0,0,1-17.56787-11.34473v30.646h-2.60009Zm36.94873,19.5376c0-9.68994-7.40577-17.56836-17.17432-17.56836a17.53247,17.53247,0,1,0,17.17432,17.56836Z" transform="translate(-130.75977 -315.51758)"/><path class="cls-1" d="M141.35986,402.29883H130.75977v-66.6919h10.60009v3.80225a23.371,23.371,0,0,1,13.56787-4.19629c13.15479,0,23.459,10.51221,23.459,23.93164,0,13.37549-10.3042,23.853-23.459,23.853a23.33043,23.33043,0,0,1-13.56787-4.21582Zm13.17432-56.72266a13.53358,13.53358,0,1,0,13.17432,13.56836A13.23322,13.23322,0,0,0,154.53418,345.57617Z" transform="translate(-130.75977 -315.51758)"/><path class="cls-1" d="M188.25342,359.53857V339.60693H190.853v19.77393c0,12.68359,6.854,17.25293,13.62939,17.25293,8.74463,0,14.73194-6.06592,14.73194-17.33154V339.60693h2.5996v38.99659h-2.5996v-9.21729h-.15772c-2.44189,5.98731-7.79932,9.61133-14.81055,9.61133C195.73779,378.99756,188.25342,373.24658,188.25342,359.53857Z" transform="translate(-130.75977 -315.51758)"/><path class="cls-1" d="M204.24609,382.99756a18.97982,18.97982,0,0,1-14.11425-5.86279c-3.90039-4.189-5.87842-10.10889-5.87842-17.5962V335.60693H194.853v23.77393c0,11.53125,6.0332,13.25293,9.62939,13.25293,9.33789,0,10.73194-8.35254,10.73194-13.33154V335.60693H225.814v46.99659h-10.5996v-2.61133A20.51713,20.51713,0,0,1,204.24609,382.99756Z" transform="translate(-130.75977 -315.51758)"/><path class="cls-1" d="M238.91016,339.60693h2.60009v10.95069a18.67243,18.67243,0,0,1,17.56788-11.34473c10.95068,0,19.45947,8.74463,19.45947,19.93164a19.48949,19.48949,0,0,1-19.45947,19.853,18.79254,18.79254,0,0,1-17.56788-11.34473v30.646h-2.60009Zm36.94873,19.5376c0-9.68994-7.40576-17.56836-17.17432-17.56836a17.53247,17.53247,0,1,0,17.17432,17.56836Z" transform="translate(-130.75977 -315.51758)"/><path class="cls-1" d="M245.51025,402.29883H234.91016v-66.6919h10.60009v3.80225a23.37106,23.37106,0,0,1,13.56788-4.19629c13.15478,0,23.45947,10.51221,23.45947,23.93164,0,13.37549-10.30469,23.853-23.45947,23.853a23.33044,23.33044,0,0,1-13.56788-4.21582Zm13.17432-56.72266a13.53358,13.53358,0,1,0,13.17432,13.56836A13.23322,13.23322,0,0,0,258.68457,345.57617Z" transform="translate(-130.75977 -315.51758)"/><path class="cls-1" d="M289.96143,355.91455h28.44091v2.44238H289.96143Z" transform="translate(-130.75977 -315.51758)"/><rect class="cls-1" x="155.20166" y="36.39697" width="36.44092" height="10.44238"/><path class="cls-1" d="M331.32227,328.34131a1.93057,1.93057,0,0,1,3.86035,0,1.93057,1.93057,0,1,1-3.86035,0Zm.62988,11.26562h2.59961v38.99659h-2.59961Z" transform="translate(-130.75977 -315.51758)"/><path class="cls-1" d="M338.55176,382.60352H327.95215V335.60693h10.59961Zm-5.33887-48.293a5.93031,5.93031,0,1,1,5.96973-5.96924A5.937,5.937,0,0,1,333.21289,334.31055Z" transform="translate(-130.75977 -315.51758)"/><path class="cls-1" d="M351.332,370.0166v-50.499h2.59961v50.26269c0,4.25391,2.12695,6.53858,5.59375,6.53858a11.53778,11.53778,0,0,0,3.07227-.55127l.47265,2.36328a15.71738,15.71738,0,0,1-4.09668.63037C354.3252,378.76123,351.332,375.68848,351.332,370.0166Z" transform="translate(-130.75977 -315.51758)"/><path class="cls-1" d="M358.97363,382.76123c-7.07226,0-11.6416-5.00244-11.6416-12.74463v-54.499h10.59961v54.26269c0,2.53858.84668,2.53858,1.59375,2.53858a8.93145,8.93145,0,0,0,1.97461-.39746l4.16992-1.19043L367.73145,381.04l-3.64258.959A19.809,19.809,0,0,1,358.97363,382.76123Z" transform="translate(-130.75977 -315.51758)"/></svg>